<svg width="512" height="512" viewBox="0 0 512 512" xmlns="http://www.w3.org/2000/svg">
  <!-- Shiden LifeLogger ホーム画面アイコン（icon-192.png / icon-512.png）のマスターSVG。
       紫電Expense の docs/icon.svg を基に、雷・背景・グラデーションはそのまま流用し、
       背後の要素を「ピンクのハート（0°・直立）」に差し替えたもの。雷がハートを貫く構図。
       PNGを再生成する場合はこのSVGを512px/192pxでラスタライズする。 -->
  <defs>
    <radialGradient id="bgr" cx="0.5" cy="0.3" r="1.0">
      <stop offset="0" stop-color="#4d357e"/>
      <stop offset="0.55" stop-color="#35245c"/>
      <stop offset="1" stop-color="#1d1136"/>
    </radialGradient>
    <linearGradient id="bolt" x1="0" y1="0" x2="0" y2="1">
      <stop offset="0" stop-color="#fde047"/><stop offset="0.5" stop-color="#f59e0b"/><stop offset="1" stop-color="#d97706"/>
    </linearGradient>
    <linearGradient id="edge" x1="0" y1="0" x2="1" y2="1">
      <stop offset="0" stop-color="#a855f7"/><stop offset="1" stop-color="#6d28d9"/>
    </linearGradient>
    <linearGradient id="hpink" x1="0" y1="0" x2="0" y2="1">
      <stop offset="0" stop-color="#ff6b9d"/><stop offset="1" stop-color="#e84371"/>
    </linearGradient>
    <filter id="sh" x="-30%" y="-30%" width="160%" height="160%">
      <feDropShadow dx="0" dy="10" stdDeviation="18" flood-color="#7c3aed" flood-opacity="0.6"/>
    </filter>
  </defs>
  <rect width="512" height="512" fill="url(#bgr)"/>
  <!-- ハート（ピンク・0°直立・王道バランス形）。中心(256,226)基準で1.4倍に拡大。雷がこのハートを貫く構図 -->
  <path transform="translate(256 226) scale(1.4) translate(-256 -226)"
        d="M256 150 C256 108 222 80 182 80 C128 80 92 122 92 174 C92 246 158 298 256 372 C354 298 420 246 420 174 C420 122 384 80 330 80 C290 80 256 108 256 150 Z"
        fill="url(#hpink)" opacity="0.98"/>
  <!-- 雷（紫電Expense と完全に同一） -->
  <g transform="translate(48 56) scale(0.78)" filter="url(#sh)">
    <path d="M296 36 L138 296 L238 296 L198 476 L396 208 L286 208 L352 36 Z" fill="none" stroke="#f5f2fa" stroke-width="72" stroke-linejoin="round"/>
    <path d="M296 36 L138 296 L238 296 L198 476 L396 208 L286 208 L352 36 Z" fill="url(#bolt)" stroke="url(#edge)" stroke-width="40" stroke-linejoin="round"/>
  </g>
</svg>
