<svg width="512" height="512" viewBox="0 0 512 512" xmlns="http://www.w3.org/2000/svg">
  <!-- Shiden LifeLogger ホーム画面アイコン（icon-192.png / icon-512.png）のマスターSVG。
       紫電Expense の docs/icon.svg を基に、雷・背景・グラデーションはそのまま流用し、
       背後の「領収書」を「人体シルエット（-23.4°傾き・雷が身体を貫く構図）」に差し替えたもの。
       PNGを再生成する場合はこのSVGを512px/192pxでラスタライズする。 -->
  <defs>
    <radialGradient id="bgr" cx="0.5" cy="0.3" r="1.0">
      <stop offset="0" stop-color="#4d357e"/>
      <stop offset="0.55" stop-color="#35245c"/>
      <stop offset="1" stop-color="#1d1136"/>
    </radialGradient>
    <linearGradient id="bolt" x1="0" y1="0" x2="0" y2="1">
      <stop offset="0" stop-color="#fde047"/><stop offset="0.5" stop-color="#f59e0b"/><stop offset="1" stop-color="#d97706"/>
    </linearGradient>
    <linearGradient id="edge" x1="0" y1="0" x2="1" y2="1">
      <stop offset="0" stop-color="#a855f7"/><stop offset="1" stop-color="#6d28d9"/>
    </linearGradient>
    <filter id="sh" x="-30%" y="-30%" width="160%" height="160%">
      <feDropShadow dx="0" dy="10" stdDeviation="18" flood-color="#7c3aed" flood-opacity="0.6"/>
    </filter>
  </defs>
  <rect width="512" height="512" fill="url(#bgr)"/>
  <!-- 人体シルエット（Tポーズ：頭・両腕を水平に広げ・胴・脚が一体の塗り。角は同色の丸ストロークで丸める。
       両手を左右に張り出すことで雷（縦）に埋もれず手が見える。脚は開いて股を確保。
       領収書と同じ -23.4° 傾き＋中心基準で1.15倍。雷がこの身体を貫く構図） -->
  <g transform="rotate(-23.4 256 256) translate(256 256) scale(1.15) translate(-256 -256)" opacity="0.97"
     fill="#efeaf7" stroke="#efeaf7" stroke-width="20" stroke-linejoin="round" stroke-linecap="round">
    <circle cx="256" cy="100" r="44" stroke="none"/>
    <path d="M240 150 L214 176 L124 180 L120 212 L214 208 L218 300 L208 448 L240 448 L247 322 L256 312 L265 322 L272 448 L304 448 L294 300 L298 208 L388 212 L392 180 L298 176 L272 150 Z"/>
  </g>
  <!-- 雷（紫電Expense と完全に同一） -->
  <g transform="translate(48 56) scale(0.78)" filter="url(#sh)">
    <path d="M296 36 L138 296 L238 296 L198 476 L396 208 L286 208 L352 36 Z" fill="none" stroke="#f5f2fa" stroke-width="72" stroke-linejoin="round"/>
    <path d="M296 36 L138 296 L238 296 L198 476 L396 208 L286 208 L352 36 Z" fill="url(#bolt)" stroke="url(#edge)" stroke-width="40" stroke-linejoin="round"/>
  </g>
</svg>
