<svg width="512" height="512" viewBox="0 0 512 512" xmlns="http://www.w3.org/2000/svg">
  <!-- Shiden LifeLogger ホーム画面アイコン（icon-192.png / icon-512.png）のマスターSVG。
       紫電Expense の docs/icon.svg を基に、雷・背景・グラデーションはそのまま流用し、
       背後の「領収書」を「人体シルエット（-23.4°傾き・雷が身体を貫く構図）」に差し替えたもの。
       PNGを再生成する場合はこのSVGを512px/192pxでラスタライズする。 -->
  <defs>
    <radialGradient id="bgr" cx="0.5" cy="0.3" r="1.0">
      <stop offset="0" stop-color="#4d357e"/>
      <stop offset="0.55" stop-color="#35245c"/>
      <stop offset="1" stop-color="#1d1136"/>
    </radialGradient>
    <linearGradient id="bolt" x1="0" y1="0" x2="0" y2="1">
      <stop offset="0" stop-color="#fde047"/><stop offset="0.5" stop-color="#f59e0b"/><stop offset="1" stop-color="#d97706"/>
    </linearGradient>
    <linearGradient id="edge" x1="0" y1="0" x2="1" y2="1">
      <stop offset="0" stop-color="#a855f7"/><stop offset="1" stop-color="#6d28d9"/>
    </linearGradient>
    <filter id="sh" x="-30%" y="-30%" width="160%" height="160%">
      <feDropShadow dx="0" dy="10" stdDeviation="18" flood-color="#7c3aed" flood-opacity="0.6"/>
    </filter>
  </defs>
  <rect width="512" height="512" fill="url(#bgr)"/>
  <!-- 人体シルエット（頭・肩・腕・胴・脚。領収書と同じ -23.4° 傾き。雷がこの身体を貫く） -->
  <g transform="rotate(-23.4 256 256)" opacity="0.97" fill="#efeaf7">
    <circle cx="256" cy="96" r="42"/>
    <path d="M256 146 c-40 0 -70 16 -80 44 l-8 22 c-4 12 12 18 17 6 l10 -20 c8 -14 26 -22 61 -22 c35 0 53 8 61 22 l10 20 c5 12 21 6 17 -6 l-8 -22 c-10 -28 -40 -44 -80 -44 Z"/>
    <path d="M180 208 c-10 -4 -20 2 -22 12 l-20 92 c-3 14 18 18 22 5 l24 -92 c2 -9 -1 -14 -4 -17 Z"/>
    <path d="M332 208 c10 -4 20 2 22 12 l20 92 c3 14 -18 18 -22 5 l-24 -92 c-2 -9 1 -14 4 -17 Z"/>
    <path d="M256 175 c-34 0 -54 14 -54 44 l0 70 c0 10 6 18 16 20 l76 0 c10 -2 16 -10 16 -20 l0 -70 c0 -30 -20 -44 -54 -44 Z"/>
    <path d="M228 300 c-14 0 -22 8 -22 24 l-4 120 c-1 16 30 16 32 1 l16 -110 l0 -35 Z"/>
    <path d="M284 300 c14 0 22 8 22 24 l4 120 c1 16 -30 16 -32 1 l-16 -110 l0 -35 Z"/>
  </g>
  <!-- 雷（紫電Expense と完全に同一） -->
  <g transform="translate(48 56) scale(0.78)" filter="url(#sh)">
    <path d="M296 36 L138 296 L238 296 L198 476 L396 208 L286 208 L352 36 Z" fill="none" stroke="#f5f2fa" stroke-width="72" stroke-linejoin="round"/>
    <path d="M296 36 L138 296 L238 296 L198 476 L396 208 L286 208 L352 36 Z" fill="url(#bolt)" stroke="url(#edge)" stroke-width="40" stroke-linejoin="round"/>
  </g>
</svg>
